<?xml version="1.0" standalone="no"?>
<!DOCTYPE svg PUBLIC "-//W3C//DTD SVG 20010904//EN"
 "http://www.w3.org/TR/2001/REC-SVG-20010904/DTD/svg10.dtd">
<svg version="1.0" xmlns="http://www.w3.org/2000/svg"
 width="287.000000pt" height="287.000000pt" viewBox="0 0 287.000000 287.000000"
 preserveAspectRatio="xMidYMid meet">
<metadata>
Created by potrace 1.11, written by Peter Selinger 2001-2013
</metadata>
<g transform="translate(0.000000,287.000000) scale(0.100000,-0.100000)"
fill="#000000" stroke="none">
<path d="M256 2729 c-87 -68 -147 -275 -182 -624 -20 -201 -27 -926 -11 -1125
4 -52 10 -122 12 -155 6 -66 11 -106 26 -205 44 -286 118 -440 211 -440 61 0
137 112 162 236 2 10 11 48 20 84 8 36 18 83 21 104 l7 40 41 -50 c211 -249
494 -411 802 -460 83 -13 340 -12 420 2 358 62 672 268 871 569 96 145 162
310 195 490 27 147 20 385 -15 530 -58 237 -182 454 -356 623 -194 189 -395
292 -695 358 -16 3 -100 8 -185 10 -291 7 -519 -60 -759 -221 -94 -62 -215
-171 -278 -250 l-32 -40 -1 30 c-1 17 -3 39 -5 50 -2 11 -9 49 -15 85 -22 132
-73 279 -113 330 -40 52 -98 63 -141 29z m98 -332 c29 -29 62 -116 83 -219
l16 -79 -51 -107 c-50 -107 -96 -242 -108 -317 -3 -22 -9 -57 -14 -77 -13 -62
-10 -297 6 -385 22 -124 60 -248 110 -353 l45 -94 -15 -66 c-56 -243 -165
-252 -225 -19 -10 41 -22 97 -25 124 -4 28 -9 64 -11 80 -20 149 -28 307 -28
575 -1 209 8 462 17 520 3 14 7 52 11 85 28 266 110 411 189 332z m1380 -486
c87 -31 144 -67 207 -132 99 -103 149 -234 144 -379 -5 -137 -52 -247 -148
-343 -200 -202 -527 -205 -727 -6 -102 101 -149 207 -155 349 -6 146 44 278
144 378 70 70 132 108 226 138 90 29 220 27 309 -5z"/>
</g>
</svg>
